# xmcd
#
# Track frame offsets: 
#        150
#        11533
#        23626
#        36499
#        47241
#        59095
#        72491
#        84884
#        98905
#        111954
#        123209
#        136621
#        147968
#        161015
#        171469
#        183884
#        196056
#        207595
#        219189
#        231940
#
# Disc length: 3319 seconds
#
# Revision: 0
# Processed by: cddbd v1.5.2PL0 Copyright (c) Steve Scherf et al.
# Submitted via: ExactAudioCopy v0.99pb3
#
DISCID=1d0cf514
DTITLE=Various Artist - Magic Soul Vol 2
DYEAR=1996
DGENRE=Soul
TTITLE0=Where did our love go - The Supremes
TTITLE1=Under the boardwalk - The Drifters
TTITLE2=Time is on my side - Thomas Irma
TTITLE3=Respect - Franklin Aretha
TTITLE4=Dancing in the street - Martha Reeves and the Vandellas
TTITLE5=How sweet it is (to be loved by you) - Gaye Marvin
TTITLE6=It's a man's, man's, man's world - Brown James
TTITLE7=Knock on wood - Floyd Eddie
TTITLE8=Ride your pony - Dorsey Lee
TTITLE9=Hold on I'm coming - Sam and Dave
TTITLE10=each out, I'll be there - Four Tops
TTITLE11=Ain't too proud to beg - The Temptations
TTITLE12=Rescue me - Bass Fontella
TTITLE13=Soul finger - The Bar-Kays
TTITLE14=Chain of fools - Franklin Aretha
TTITLE15=You can't hurry love - The Supremes
TTITLE16=I was made to love her - Wonder Stevie
TTITLE17=Peace of my heart - Franklin Erma
TTITLE18=When a man loves a woman - Sledge Percy
TTITLE19=Try a little tenderness - Redding Otis
EXTD=
EXTT0=
EXTT1=
EXTT2=
EXTT3=
EXTT4=
EXTT5=
EXTT6=
EXTT7=
EXTT8=
EXTT9=
EXTT10=
EXTT11=
EXTT12=
EXTT13=
EXTT14=
EXTT15=
EXTT16=
EXTT17=
EXTT18=
EXTT19=
PLAYORDER=
